<svg width="25" height="25" viewBox="0 0 25 25" fill="none" xmlns="http://www.w3.org/2000/svg">
<path d="M17.7083 15.125H16.5892L16.1925 14.7537C17.5808 13.1862 18.4167 11.1512 18.4167 8.9375C18.4167 4.00125 14.2942 0 9.20833 0C4.1225 0 0 4.00125 0 8.9375C0 13.8737 4.1225 17.875 9.20833 17.875C11.4892 17.875 13.5858 17.0638 15.2008 15.7163L15.5833 16.1012V17.1875L22.6667 24.0487L24.7775 22L17.7083 15.125ZM9.20833 15.125C5.68083 15.125 2.83333 12.3612 2.83333 8.9375C2.83333 5.51375 5.68083 2.75 9.20833 2.75C12.7358 2.75 15.5833 5.51375 15.5833 8.9375C15.5833 12.3612 12.7358 15.125 9.20833 15.125Z" fill="black"/>
</svg>
